<?xml version="1.0" encoding="UTF-8" standalone="no"?>
<!-- Created with Inkscape (http://www.inkscape.org/) -->

<svg
   xmlns:osb="http://www.openswatchbook.org/uri/2009/osb"
   xmlns:dc="http://purl.org/dc/elements/1.1/"
   xmlns:cc="http://creativecommons.org/ns#"
   xmlns:rdf="http://www.w3.org/1999/02/22-rdf-syntax-ns#"
   xmlns:svg="http://www.w3.org/2000/svg"
   xmlns="http://www.w3.org/2000/svg"
   xmlns:xlink="http://www.w3.org/1999/xlink"
   xmlns:sodipodi="http://sodipodi.sourceforge.net/DTD/sodipodi-0.dtd"
   xmlns:inkscape="http://www.inkscape.org/namespaces/inkscape"
   id="svg2985"
   version="1.1"
   inkscape:version="0.48.4 r9939"
   width="1920"
   height="1520"
   sodipodi:docname="raphy_main.svg"
   inkscape:export-filename="/home/oleg/git/etc/Raphy/raphy_main.png"
   inkscape:export-xdpi="58.099998"
   inkscape:export-ydpi="58.099998">
  <metadata
     id="metadata2991">
    <rdf:RDF>
      <cc:Work
         rdf:about="">
        <dc:format>image/svg+xml</dc:format>
        <dc:type
           rdf:resource="http://purl.org/dc/dcmitype/StillImage" />
        <dc:title></dc:title>
      </cc:Work>
    </rdf:RDF>
  </metadata>
  <defs
     id="defs2989">
    <linearGradient
       id="linearGradient6462">
      <stop
         style="stop-color:#ffc34f;stop-opacity:1;"
         offset="0"
         id="stop6464" />
      <stop
         style="stop-color:#e1c09b;stop-opacity:1;"
         offset="1"
         id="stop6466" />
    </linearGradient>
    <linearGradient
       id="linearGradient6215">
      <stop
         id="stop6223"
         offset="0"
         style="stop-color:#f5bb0d;stop-opacity:1;" />
      <stop
         style="stop-color:#ffa900;stop-opacity:1;"
         offset="1"
         id="stop6219" />
    </linearGradient>
    <linearGradient
       id="linearGradient6195">
      <stop
         style="stop-color:#767070;stop-opacity:1;"
         offset="0"
         id="stop6197" />
      <stop
         style="stop-color:#ffffff;stop-opacity:1;"
         offset="1"
         id="stop6199" />
    </linearGradient>
    <linearGradient
       id="linearGradient6175"
       osb:paint="gradient">
      <stop
         style="stop-color:#090a0a;stop-opacity:0.6438356;"
         offset="0"
         id="stop6177" />
      <stop
         style="stop-color:#090a0a;stop-opacity:1;"
         offset="1"
         id="stop6179" />
    </linearGradient>
    <radialGradient
       inkscape:collect="always"
       xlink:href="#linearGradient6175"
       id="radialGradient6205"
       cx="1166.9741"
       cy="888.33948"
       fx="1166.9741"
       fy="888.33948"
       r="387.25379"
       gradientTransform="matrix(1,0,0,0.63217913,0,326.74981)"
       gradientUnits="userSpaceOnUse" />
    <linearGradient
       inkscape:collect="always"
       xlink:href="#linearGradient6195"
       id="linearGradient6425"
       x1="887.64624"
       y1="889.36621"
       x2="1503.7032"
       y2="889.36621"
       gradientUnits="userSpaceOnUse" />
  </defs>
  <sodipodi:namedview
     pagecolor="#ffffff"
     bordercolor="#666666"
     borderopacity="1"
     objecttolerance="10"
     gridtolerance="10"
     guidetolerance="10"
     inkscape:pageopacity="0"
     inkscape:pageshadow="2"
     inkscape:window-width="1366"
     inkscape:window-height="706"
     id="namedview2987"
     showgrid="false"
     inkscape:zoom="0.70526316"
     inkscape:cx="1321.5333"
     inkscape:cy="506.10501"
     inkscape:window-x="0"
     inkscape:window-y="27"
     inkscape:window-maximized="1"
     inkscape:current-layer="svg2985"
     showguides="true"
     inkscape:guide-bbox="true" />
  <path
     inkscape:connector-curvature="0"
     id="path4291"
     d="m 1117.1492,1131.583 c -8.25,-0.9635 -21.075,-2.9239 -28.5,-4.3564 -43.4475,-8.3822 -45.0428,-8.7949 -60.7768,-15.7198 -2.3522,-1.0353 -5.1279,-1.8823 -6.1682,-1.8823 -3.3543,0 -6.0576,-1.4121 -6.0576,-3.7027 0,-3.8678 6.0188,-6.7316 8.5526,-4.437 0.5225,0.4732 3.2,1.6007 5.95,2.5057 12.7885,4.2084 18.0695,5.81 21.8805,6.6361 2.2657,0.4911 6.8195,1.612 10.1195,2.4908 3.3,0.8788 8.25,2.0044 11,2.5013 2.75,0.4969 8.6,1.6311 13,2.5204 4.4,0.8894 10.475,1.9917 13.5,2.4497 3.025,0.4581 11.8,1.8491 19.5,3.0912 13.1754,2.1253 17.0628,2.2636 66,2.3486 37.0399,0.064 53.389,-0.7106 56.0601,-1.5416 4.2148,-1.3112 49.7249,-5.7117 44.4125,-4.2197 l -27.5163,11.2938 -28.7198,1.1802 c -78.1246,3.2105 -97.6471,0.5456 -112.2365,-1.1583 z m 150.2417,-6.8597 -6.9541,-3.0335 6.3291,-0.4387 c 1.7233,-0.3446 4.0496,-0.5695 6.6316,-0.9521 2.7153,-0.3234 8.1615,-1.3016 12.7584,-3.3086 15.9248,-6.9529 26.4779,-18.3846 31.8449,-34.3224 1.3204,-3.9211 2.6815,-7.41 3.0245,-7.753 0.9821,-10.6403 6.1606,-19.229 7.1033,-28.4297 0.4692,-4.7669 2.9786,-16.96 5.528,-26.8608 1.788,-6.9435 4.9925,-26.7783 4.9925,-30.90163 0,-2.31836 0.4577,-8.35141 1.017,-13.40679 6.2576,-56.55552 7.8944,-79.55898 7.9475,-111.69158 0.047,-28.38214 -1.0403,-47.61003 -3.4772,-61.5 -0.772,-4.4 -1.9002,-11.15 -2.5072,-15 -0.607,-3.85 -1.7326,-9.25 -2.5013,-12 -0.7687,-2.75 -2.0589,-7.7 -2.8671,-11 -1.5737,-6.42624 -3.3463,-11.9302 -4.7457,-14.73643 -0.4763,-0.95504 -0.866,-2.38107 -0.866,-3.16896 0,-0.78789 -0.6398,-2.7065 -1.4219,-4.26357 -0.782,-1.55706 -3.2599,-6.65603 -5.5063,-11.33104 -5.9513,-12.38484 -7.8117,-15.50405 -15.279,-25.61605 -13.2996,-18.01008 -31.3964,-33.41484 -49.9358,-42.50748 -8.4554,-4.14699 -9.3993,-4.53958 -13.857,-5.7638 -2.475,-0.67971 -5.85,-1.72742 -7.5,-2.32824 -1.65,-0.60082 -11.0225,-1.29244 -20.8279,-1.53693 -40.2137,3.4887 -57.4221,11.79395 -1.6721,10.515 9.3545,-0.0742 16.8877,0.33404 19,1.02968 1.925,0.63396 6.2665,2.04852 9.6478,3.14347 12.2482,3.96635 28.2101,13.82615 38.7007,23.90582 14.6344,14.06116 30.8691,40.52671 39.6632,64.65854 8.0782,22.16734 11.1369,41.45949 13.1332,82.83285 1.1786,24.42805 0.1476,65.23266 -2.1394,84.66715 -0.5501,4.675 -1.474,13 -2.0531,18.5 -0.579,5.5 -1.4456,11.35 -1.9257,13 -0.48,1.65 -1.1656,5.68421 -1.5235,8.96492 -0.358,3.28071 -0.8431,6.27606 -1.0781,6.65634 -0.235,0.38028 -0.8378,3.32107 -1.3395,6.53508 -2.3394,14.98838 -6.1219,30.70915 -10.8497,45.09365 -2.2316,6.7896 -3.0766,8.25 -4.7737,8.25 -1.1342,0 -2.4897,-0.3951 -3.0122,-0.878 -0.5225,-0.4829 -3.65,-2.3564 -6.95,-4.1633 -3.3,-1.807 -7.575,-4.18 -9.5,-5.2734 -6.1914,-3.5166 -16.8707,-8.6651 -22.2588,-10.731 -2.8827,-1.1052 -6.1412,-2.4005 -7.2412,-2.8785 -3.4548,-1.5011 -15.8253,-5.3166 -20,-6.1687 -2.2,-0.449 -7.375,-1.52863 -11.5,-2.3991 -13.8561,-2.92397 -29.3306,-4.00799 -57.2144,-4.00799 -33.2537,0 -33.201,-0.0168 -26.2378,8.34919 2.4488,2.9421 4.4523,5.6488 4.4523,6.0149 0,0.366 -15.6375,0.5262 -34.75,0.356 -50.5769,-0.4506 -73.9439,1.8817 -90.25,9.0078 -9.3641,4.0922 -10.8392,4.9846 -16.331,9.8793 -8.45169,7.533 -11.57259,15.4961 -9.57373,24.4279 0.68388,3.0559 1.61723,5.7872 2.07403,6.0696 0.4569,0.2823 0.8307,1.181 0.8307,1.997 0,2.4388 7.2046,11.4154 15.3952,19.1818 4.2248,4.006 7.3963,7.7448 7.0479,8.3086 -0.6827,1.1045 -4.4743,0.5652 -10.9431,-1.5567 -2.2,-0.7216 -6.475,-1.8413 -9.5,-2.4883 -6.07102,-1.2984 -13.00514,-3.8002 -22,-7.9373 -5.9509,-2.7371 -19,-11.4533 -19,-12.6911 0,-0.6456 0.675,-1.734 1.5,-2.4187 0.825,-0.6847 1.5,-1.61 1.5,-2.0563 0,-0.4463 3.825,-6.907 8.5,-14.3572 4.675,-7.4502 8.5,-14.005 8.5,-14.5662 0,-0.5612 0.36033,-1.0203 0.80073,-1.0203 0.44041,0 1.77634,-1.9125 2.96874,-4.25 1.1924,-2.3375 3.99088,-7.4 6.21885,-11.25 6.25003,-10.8002 15.76088,-30.61995 18.95468,-39.49999 0.6924,-1.925 1.6313,-4.4 2.0865,-5.5 0.8036,-1.94176 2.5731,-7.80972 4.8248,-16 2.8349,-10.3112 3.958,-26.11373 2.1023,-29.58099 -1.1634,-2.17394 -6.6733,-4.9005 -14.9566,-7.40132 -6.73183,-2.0324 -6.79632,-2.05986 -21,-8.94207 -19.0858,-9.24778 -40.26616,-25.85139 -55.20973,-43.27978 -11.78539,-13.74506 -14.20726,-17.26281 -22.92317,-33.29584 -0.44849,-0.825 -1.95206,-4.90883 -3.34127,-9.07518 -1.99287,-5.9768 -2.52583,-9.58142 -2.52583,-17.08333 0,-5.22949 0.30098,-9.80914 0.66885,-10.17701 0.36787,-0.36786 1.38037,-0.0391 2.25,0.73069 0.86963,0.76975 3.46294,2.45823 5.76291,3.75218 2.29997,1.29395 9.67436,7.30264 16.38753,13.35265 19.28946,17.38393 29.70423,25.28464 43.43677,32.95144 5.59064,3.12122 7.62656,2.32678 5.57212,-2.17431 -0.69716,-1.52742 -1.93117,-4.80213 -2.74225,-7.27713 -0.81107,-2.475 -2.53353,-6.75 -3.82769,-9.5 -6.74401,-14.33064 -9.67378,-20.945 -13.50969,-30.5 -2.31841,-5.775 -4.79415,-11.85 -5.50164,-13.5 -1.74155,-4.0616 -2.8292,-6.77636 -6.00964,-15 -4.6607,-12.05109 -5.33259,-13.89167 -6.57081,-18 -0.66307,-2.2 -1.76518,-5.35 -2.44913,-7 -0.68395,-1.65 -1.68212,-4.575 -2.21815,-6.5 -0.53603,-1.925 -1.80338,-6.084 -2.81634,-9.24223 -1.5929,-4.96642 -1.68997,-6.62818 -0.71848,-12.2997 1.85259,-10.81534 3.98949,-11.67071 14.30839,-5.72744 4.983,2.87001 12.9922,10.30043 34.71805,32.2092 21.03684,21.21394 28.5298,28.18955 29.3738,27.34559 1.1221,-1.12214 -0.337,-13.0964 -4.6044,-37.78542 -0.8556,-4.95 -1.8313,-15.8625 -2.1683,-24.25 -0.67378,-16.76978 -0.83024,-16.362 5.4394,-14.17641 3.6871,1.28534 8.8336,8.81673 16.008,23.42641 3.6243,-0.61132 7.872,-5.8833 6.1681,-9.14004 -8.273,-16.41348 -15.9866,-28.712 -19.3163,-30.79778 -1.1776,-0.73766 -4.5126,-1.92831 -7.4112,-2.64589 -4.61102,-1.14153 -5.4668,-1.10796 -6.84321,0.26844 -3.52646,3.52647 -5.43635,25.58631 -3.43052,39.62372 0.52589,3.68035 1.19109,9.39155 1.47823,12.69155 0.28714,3.3 0.97113,7.8 1.51998,10 1.24674,4.99742 1.28518,6.5 0.16631,6.5 -0.48363,0 -5.54613,-4.82183 -11.25,-10.71517 -30.26252,-31.26776 -38.37595,-37.28483 -50.27495,-37.28483 -4.2817,0 -5.68332,0.4871 -8.31309,2.88902 -4.84324,4.42362 -6.28265,8.97533 -6.28265,19.86708 0,5.23152 0.41096,11.13907 0.91325,13.12788 0.50229,1.98881 1.45809,6.09102 2.124,9.11602 1.57815,7.16894 11.94497,39.21948 13.08365,40.45 0.48351,0.5225 0.8791,1.55581 0.8791,2.29624 0,0.74043 1.575,4.7103 3.5,8.82193 1.925,4.11163 3.5,7.73532 3.5,8.05263 0,0.31732 0.675,2.10745 1.5,3.97807 0.825,1.87062 2.175,4.93164 3,6.80226 1.5502,3.51495 1.9624,6.59887 0.88202,6.59887 -0.64663,0 -4.41872,-3.16859 -12.97467,-10.89883 -19.47478,-17.59532 -26.34837,-22.10117 -33.71494,-22.10117 -5.70851,0 -9.02492,2.59278 -11.09777,8.67628 -1.77909,5.22134 -2.13082,17.97959 -0.62726,22.75272 0.53205,1.68905 1.74711,5.771 2.70012,9.071 0.95301,3.3 2.61023,7.575 3.68271,9.5 2.12315,3.81084 12.74275,20.19007 13.61551,21 0.29634,0.275 3.10319,3.6731 6.23746,7.55133 13.07045,16.17292 33.87321,34.03746 54.5808,46.8717 12.46391,7.72494 35.34562,19.57697 37.79562,19.57697 2.6475,0 3.4492,4.56397 2.4678,14.04987 -0.5111,4.9397 -1.3811,10.43677 -1.9335,12.2157 -0.5523,1.77894 -1.7764,5.93443 -2.7201,9.23443 -0.9438,3.3 -2.041,6.675 -2.4382,7.5 -0.3973,0.825 -1.183,2.625 -1.7461,4 -2.61272,6.3797 -10.31592,21.51446 -16.03268,31.49999 -8.56949,14.9684 -7.68191,13.511 -16.7477,27.5 -10.91181,16.8375 -16.42912,27.4027 -16.42912,31.4604 0,4.7341 5.33688,9.1527 19.14249,15.8489 13.04272,6.3261 19.20508,9.1567 23.10751,10.6142 1.71904,0.642 2.75,1.7639 2.75,2.9927 0,5.0087 -8.2799,4.648 -18.71915,-0.8156 -4.27947,-2.2397 -10.34186,-5.001 -13.47198,-6.1362 -4.02677,-1.4604 -7.3057,-3.6786 -11.21205,-7.585 -10.4141,-10.4141 -10.99152,-14.9096 -3.679,-28.6433 10.06978,-18.912 11.49267,-21.4141 16.6255,-29.2361 2.88731,-4.4 5.54563,-8.9938 5.90737,-10.2084 0.36173,-1.2147 3.7784,-7.2897 7.59259,-13.50002 9.81683,-15.984 14.67514,-26.28215 18.84653,-39.94888 2.95269,-9.6739 3.53479,-12.94083 3.12009,-17.50973 l -0.5099,-5.61689 -7.5,-3.98874 c -4.125,-2.1938 -10.875,-5.67733 -15,-7.74118 -4.125,-2.06384 -9.3,-5.19978 -11.5,-6.96875 -2.2,-1.76897 -5.8,-4.13284 -8,-5.25305 -2.2,-1.12022 -5.35,-3.11219 -7,-4.42661 -18.3188,-14.59313 -24.17059,-19.15695 -26.89175,-20.97295 -3.93684,-2.62729 -12.60825,-12.45732 -12.60825,-14.29289 0,-0.49788 -0.38047,-1.05523 -0.84548,-1.23857 -1.38768,-0.54709 -7.83356,-10.05982 -9.42992,-13.91652 -0.81573,-1.97075 -3.07104,-5.66343 -5.01179,-8.20595 -1.94075,-2.54252 -4.08076,-6.33009 -4.75559,-8.41681 -0.67483,-2.08673 -2.24028,-5.59405 -3.47878,-7.79405 -3.2001,-5.68448 -7.49123,-23.99073 -7.41424,-31.62969 0.0353,-3.50367 0.63119,-9.07031 1.32416,-12.37031 1.05015,-5.0009 1.81393,-6.37502 4.58683,-8.25213 7.23033,-4.89455 3.84124,-7.03382 21.9785,-3.20168 9.43467,1.99341 22.28834,21.0128 23.7201,19.58104 -7.03477,-29.8109 -25.04009,-58.00702 -23.48332,-85.35529 0.39179,-14.51281 15.86542,-24.93267 28.88792,-21.85202 7.22158,2.10007 19.34152,10.05123 29.42161,19.30174 7.39894,6.79002 11.72224,9.38944 13.18442,7.92725 0.32521,-0.3252 0.57149,-10.16675 0.5473,-21.8701 0.9741,-9.40463 -3.24775,-17.4618 2.89367,-24.77881 2.59887,-3.09636 3.48182,-3.49837 7.65613,-3.4859 24.87348,2.5435 26.55618,18.98488 39.82328,31.5729 3.2572,1.03217 9.9783,-10.02616 11.6337,-11.89813 7.7821,-9.06019 15.1007,-10.48432 25.9816,-5.05578 3.4539,1.7232 7.0807,4.0857 8.0596,5.25 3.9462,4.69397 10.2863,18.76974 11.3133,25.11691 2.4269,14.99891 -3.353,56.18038 -1.5031,58.46487 2.5166,3.10792 20.402,-9.11447 28.7417,-15.42777 6.8849,-5.21202 1.8371,-22.0564 0.2953,-27.45045 -1.6086,-14.11026 -0.2376,-18.73694 -0.1271,-24.63828 0,-2.83684 4.6321,-14.79507 7.2058,-18.60274 0.9868,-1.4599 1.7942,-3.0724 1.7942,-3.58333 0,-0.51093 1.3375,-2.24147 2.9722,-3.84563 1.6348,-1.60417 2.9848,-3.47917 3,-4.16667 4.0692,-2.15126 16.7866,-12.06933 19.9901,-12.42925 8.054,-3.71409 17.3931,-6.78431 25.3869,-8.35418 4.483,-0.85477 9.9508,-1.96105 12.1508,-2.45841 7.1922,-1.62595 24.8688,-3.95463 30.9999,-4.08386 9.654,-0.21486 19.4685,1.09013 28.4839,3.0757 13.4769,3.74334 28.4721,9.8509 38.4661,17 35.1463,28.19092 48.472,54.77066 60.4766,95.86385 2.4675,8.60526 4.0927,12.92203 6.1768,26.13615 3.4472,21.85639 4.1295,25.56658 5.001,27.19509 0.5313,0.9927 1.3837,1.80491 1.8943,1.80491 1.7578,0 19.5368,-16.3912 36.5013,-33.6521 17.208,-17.50854 22.688,-21.88723 31.9026,-25.49086 2.8036,-1.09643 5.9974,-2.56442 7.0974,-3.2622 3.8552,-2.4455 14.5037,-3.80674 23.9524,-3.06191 10.45,0.82377 12.5028,1.4602 17.2013,5.33315 5.3383,4.40026 7.4473,9.22572 7.5224,17.21169 0.042,4.46793 0.5354,7.26777 1.4081,7.9921 0.7389,0.6132 5.9722,1.33238 11.6296,1.59819 7.8516,0.36889 11.5973,1.04798 15.8255,2.8691 3.2219,1.38775 6.4641,2.14398 7.75,1.8077 1.3062,-0.34159 2.2107,-0.12128 2.2107,0.53851 0,0.61415 0.8,1.11663 1.7778,1.11663 0.9778,0 2.4893,0.7875 3.359,1.75 0.8697,0.9625 2.9882,2.94124 4.7079,4.39719 3.978,3.36797 4.7441,5.48295 5.6312,15.54644 0.9854,11.17777 -0.8256,16.52657 -8.1275,24.00571 -2.9992,3.07196 -5.2265,6.17598 -4.9495,6.89784 0.277,0.72185 2.2131,2.18804 4.3024,3.25819 2.0893,1.07015 5.5257,3.32269 7.6365,5.00564 2.1107,1.68296 4.7052,3.33525 5.7655,3.67177 2.1739,0.68997 7.925,9.20055 9.7271,14.39429 0.7463,2.15114 0.9487,5.7727 0.5436,9.72728 -0.6198,6.04915 -0.8692,6.51214 -6.2597,11.61842 -4.727,4.47773 -7.1157,5.83515 -15.1143,8.58913 -5.225,1.799 -10.5125,3.68138 -11.75,4.18307 -2.999,1.21579 -2.9264,4.97098 0.152,7.86296 3.6313,3.41143 4.6751,9.17362 3.5796,19.76173 -0.5173,5.00086 -1.3556,10.18386 -1.8627,11.51778 -5.1065,13.43102 -33.3988,25.79832 -74.1189,32.39925 -11.825,1.91689 -28.2874,4.59407 -36.5832,5.94928 -8.2957,1.35522 -17.6628,2.46403 -20.8157,2.46403 -3.1529,0 -6.7155,0.54098 -7.9168,1.20218 -1.2526,0.68942 -8.2934,1.43644 -16.5073,1.75139 l -14.3231,0.5492 -3.9269,4.20989 c -2.1598,2.31544 -3.927,5.14177 -3.927,6.28074 0,1.13896 -0.7112,3.74388 -1.5805,5.78869 -0.8693,2.0449 -2.4227,9.0549 -3.4519,15.5778 -2.608,16.5282 -3.8485,22.5141 -5.6243,27.1401 -4.7713,17.7426 -10.3781,35.7156 -15.5623,50.3299 -4.5842,12.8684 -7.2428,16.8776 -13.7069,20.6701 -1.8749,1.1 -6.371,3.7284 -9.9915,5.841 -5.9487,2.6475 -11.9391,5.5466 -18.3203,6.4967 -11.7945,1.2671 -5.0183,1.2914 -9.0205,-1.7389 z m 211.7582,-235.09197 c 9.0424,-2.26554 17.2531,-6.09323 20.9059,-9.74599 4.9898,-4.98987 4.8881,-6.558 -0.2516,-3.87549 -14.5917,7.61585 -18.5956,8.58354 -35.5833,8.6001 -8.2109,0.008 -16.3109,-0.40705 -18,-0.92235 -1.689,-0.51529 -7.571,-1.37277 -13.071,-1.90551 -8.7233,-0.84497 -10.1596,-0.76479 -11.25,0.62802 -0.6875,0.87816 -1.25,1.93953 -1.25,2.3586 0,1.50884 9.0305,4.64805 18,6.25721 4.9445,0.88707 35.6075,-0.1688 40.5,-1.3946 z m -33,-34.56656 c 12.8745,-2.87832 23.1267,-6.00351 24.95,-7.60554 0.5225,-0.45911 1.5283,-0.83472 2.235,-0.83472 1.5708,0 10.4968,-5.35856 15.4484,-9.27411 4.0275,-3.1848 8.5188,-9.23289 11.1449,-15.00767 1.5493,-3.4071 1.5638,-3.84158 0.1466,-4.38544 -1.0176,-0.39046 -3.0614,0.8569 -5.7869,3.53178 -2.3175,2.27449 -4.7217,4.13544 -5.3425,4.13544 -0.6209,0 -1.2788,0.35375 -1.4621,0.78612 -0.3881,0.91528 -6.2967,5.18337 -9.5308,6.88461 -1.2241,0.64391 -3.4804,1.84111 -5.0141,2.66046 -1.5337,0.81934 -4.5885,2.22681 -6.7885,3.12771 -2.2,0.90089 -4.7814,2.06619 -5.7364,2.58954 -0.9551,0.52336 -2.7925,0.95156 -4.0833,0.95156 -1.2908,0 -2.67,0.32303 -3.0648,0.71784 -1.8382,1.83827 -17.9378,4.18893 -28.9974,4.23388 l -11.8819,0.0483 -3.3681,3.5712 c -1.8524,1.96416 -3.3681,3.98916 -3.3681,4.5 0,1.63179 32.6544,1.12307 40.5,-0.63094 z m -41.4595,-32.9575 c 9.0675,-2.85799 19.0246,-7.77094 25.2989,-12.48276 7.7249,-5.80123 20.3635,-19.96375 19.0171,-21.31014 -0.3105,-0.31053 -5.4372,3.13719 -11.3926,7.66159 -5.9554,4.5244 -12.7711,9.23817 -15.1459,10.47503 -2.3749,1.23686 -4.993,2.61195 -5.818,3.05575 -4.8189,2.59226 -6.1761,3.11776 -8.0521,3.11776 -1.1437,0 -2.9892,0.48696 -4.1013,1.08213 -1.1121,0.59518 -3.0476,1.26811 -4.3012,1.49542 -2.2643,0.41059 -9.5454,3.22717 -9.5454,3.69247 0,0.13375 -0.4289,1.7387 -0.9531,3.56656 l -0.9531,3.32338 4.2031,-0.65025 c 2.3117,-0.35764 7.5963,-1.71977 11.7436,-3.02695 z m -249.1834,-82.01026 c 4.3514,-4.57273 9.1132,-12.72072 10.6495,-18.2225 0.9638,-3.4513 2.1628,-2.70901 4.0384,2.5 3.4867,9.68327 7.3601,16.81013 10.3264,19 4.5438,3.35445 11.9066,3.1314 16.302,-0.49386 4.3219,-3.56468 5.1608,-4.67463 8.5068,-11.25614 5.8232,-14.77136 3.2164,-42.11645 -8.9715,-52.3826 -3.7494,-3.07235 -5.1587,-3.6174 -9.3534,-3.6174 -6.7667,0.78106 -9.8615,3.55322 -13.3552,9.30772 0,1.22271 -4.9713,8.69228 -5.7851,8.69228 -0.418,0 -1.6334,-1.6875 -2.7008,-3.75 -5.7831,-11.17439 -11.4705,-14.64204 -20.0673,-12.23511 -3.6482,1.02143 -5.5023,2.37931 -8.6,6.29812 -5.7042,7.21639 -7.6283,12.80775 -9.5279,27.68699 -0.479,3.75197 0.8245,14.59055 2.6593,22.11238 1.9267,7.89842 7.4088,11.51577 17.2533,11.38453 3.3381,-0.0445 4.569,-0.76152 8.6255,-5.02441 z m 27.893,0.95552 c -3.3188,-3.06443 -6.0003,-8.01347 -6.5094,-11.98573 -1.3859,-6.07815 2.0125,-12.25989 3.7594,-14.90711 1.4213,-2.15389 3.6729,-3.79565 6.29,-2.08084 5.1302,3.36143 7.1306,7.55701 7.1716,15.04138 -0.01,7.65515 -3.8845,17.59474 -10.7116,13.93231 z m -46.5154,-3.42408 c -4.1399,-3.85697 -5.0085,-12.5665 -1.0053,-20.83604 2.1883,-4.52034 3.3043,-6.24946 7.1351,-5.96981 3.8308,0.27965 4.3494,0.73911 5.9004,3.91053 6.2252,12.72887 -3.3607,30.97218 -12.0302,22.89532 z M 871.3869,1053.1953 c -2.79949,-0.6037 -5.44842,-3.3486 -5.98781,-6.1612 -0.53998,-2.8157 0.4577,-5.0286 3.28731,-7.948 7.98161,-10.817 88.31384,-24.524 88.35552,-22.9731 -3.06,1.9054 -2.99164,2.0509 -4.18068,2.8567 -1.18904,0.8058 -38.75909,17.0553 -58.33401,25.1192 -7.66437,3.1573 -15.03733,10.8536 -23.14033,9.1064 z m -52.7377,-43.1992 c -6.96307,-1.2312 -9.98518,-2.8183 -11.91097,-7.0019 -0.92238,-2.0038 -0.0155,-4.64958 1.16226,-6.51475 1.57131,-2.48852 4.46008,-4.01543 7.18116,-5.13681 14.88064,-6.13244 31.56614,-7.67669 47.66077,-7.73399 32.01302,-0.11398 70.80104,4.9627 94.90678,14.70785 l 5.5,2.2235 -6.56634,0.042 c -3.61149,0.023 -9.01149,0.488 -12,1.0329 -5.51635,1.0057 -20.50883,2.6076 -35.93366,3.8394 -28.31431,2.5553 -62.44605,7.8222 -90,4.5416 z m 139.75327,-33.64983 c -3.76317,-1.29736 -14.67597,-2.32422 -41.75327,-6.70621 -6.325,-1.02359 -19.6,-3.26863 -29.5,-4.98896 -22.35893,-3.88537 -64.8819,-11.16948 -85.6351,-14.66913 -14.13932,-2.38436 -15.93796,-2.91963 -18.80079,-5.59518 -2.80521,-2.6217 -3.27301,-4.93074 -2.86489,-7.61044 0.48328,-3.17322 3.10508,-6.05389 5.92154,-7.59351 5.43397,-2.97049 12.309,-1.86078 18.5,-1.70781 47.99268,5.54636 81.47531,18.0277 135.74215,38.34649 4.98523,1.86659 13.42034,7.10451 15.75784,8.29239 2.3375,1.18787 5.87925,3.20987 5.87925,3.20987 0,0 -2.23769,-0.62974 -3.24673,-0.97751 z M 1149.8818,766.00068 c 3.6328,-6.81581 10.0361,-11.87749 15.1713,-11.87749 10.05,0 5.9619,9.94629 -5.4039,13.08241 -3.025,0.83468 -7.5717,2.48371 -9.0316,3.28157 -4.1154,2.24921 -4.1211,1.86496 -0.7358,-4.48649 z"
     style="fill:url(#radialGradient6205);fill-opacity:1;stroke:none"
     sodipodi:nodetypes="sscsscccssccsscscssccccsscccscscssccsccssssccsssssscccscssscccccsssssscscsscccsssssssssccscssssssscsssssssssssssssscsssccssssssssssssssssssssssssssssssscccssssscsssssscssccssssssscsssssssscccsccccccscscsccssccccsccccscssssssscscssssssssscsccssssccssssscsscsccscccccssscssssccccssccsscssscsssccscccscscsssssscsccscsssccccssssssssccsscccsssssaacczaacasaascccccccssssaacssccssscs" />
  <path
     style="fill:#333333;fill-opacity:1;stroke:none"
     d="m 1134.4172,758.22762 c -2.1347,2.09036 -9.2165,7.7985 -9.2165,7.7985 0,0 5.4376,-6.8593 8.8003,-9.60777 1.2918,-1.05589 3.2223,-3.86083 4.29,-2.57872 1.2485,1.4993 -1.7391,2.29763 -3.8738,4.38799 z"
     id="path4430"
     inkscape:connector-curvature="0"
     sodipodi:nodetypes="zcaaz" />
  <path
     inkscape:connector-curvature="0"
     id="path4293"
     d="m 1140.6234,1125.543 c -8.525,-0.4446 -20,-1.5622 -25.4999,-2.4836 -5.5,-0.9214 -12.475,-2.0565 -15.5,-2.5223 -3.025,-0.4658 -9.1,-1.5746 -13.5,-2.4639 -4.4,-0.8893 -10.25,-2.0235 -13,-2.5205 -2.75,-0.4969 -7.7,-1.6249 -11,-2.5065 -3.3001,-0.8817 -7.1251,-1.8382 -8.5001,-2.1255 -3.5496,-0.7418 -18.7494,-5.2817 -23.5,-7.0191 -8.7858,-3.2131 -35.24382,-3.17 -34.49652,-5.2994 9.58942,-2.0997 23.85512,-2.7645 28.45972,-6.3924 1.6238,-10.4955 -21.5644,-23.0182 -22.4632,-32.0495 0,-0.8161 -0.3738,-1.7147 -0.8306,-1.9971 -0.4569,-0.2824 -1.39023,-3.0137 -2.07411,-6.0696 -1.29198,-5.7731 -0.82433,-8.7992 2.50651,-16.2189 3.4094,-7.5946 17.7112,-17.1067 31.8982,-21.2155 15.8593,-4.5931 39.0465,-6.261 81.7501,-5.8806 19.1124,0.1703 34.7499,0.01 34.7499,-0.356 0,-0.3661 -2.0035,-3.0728 -4.4523,-6.0148 -6.9632,-8.36604 -7.0159,-8.34927 26.2379,-8.34927 27.8838,0 43.3583,1.08402 57.2144,4.00799 4.125,0.87047 9.3,1.95008 11.5,2.39908 4.1747,0.8521 16.5452,4.6676 20,6.1688 1.1,0.4779 4.3585,1.7732 7.2412,2.8785 5.3881,2.0658 16.0674,7.2143 22.2588,10.731 1.925,1.0933 6.2,3.4663 9.5,5.2733 3.3,1.8069 6.4275,3.6804 6.95,4.1633 0.5225,0.4829 1.878,0.878 3.0122,0.878 1.6971,0 2.5421,-1.4604 4.7737,-8.25 4.7278,-14.3845 8.5103,-30.10525 10.8497,-45.09363 0.5017,-3.21401 1.1045,-6.1548 1.3395,-6.53508 0.235,-0.38028 0.7201,-3.37563 1.0781,-6.65634 0.3579,-3.28071 1.0435,-7.31492 1.5235,-8.96492 0.4801,-1.65 1.3467,-7.5 1.9257,-13 0.5791,-5.5 1.503,-13.825 2.0531,-18.5 2.287,-19.43449 3.318,-60.2391 2.1394,-84.66715 -1.9963,-41.37336 -5.055,-60.66551 -13.1332,-82.83285 -8.7941,-24.13183 -25.0288,-50.59737 -39.6632,-64.65854 -10.4906,-10.07967 -26.4525,-19.93947 -38.7007,-23.90582 -28.5516,-9.40789 -56.4789,1.91025 -75.9944,-6.93564 0,0 2.7566,-0.63175 4.5628,-1.40389 3.7218,-1.59109 7.9387,-2.73133 18.956,-5.12575 6.1048,-1.32674 11.3144,-1.57657 25.4999,-1.22287 9.8054,0.24449 19.1779,0.93611 20.8279,1.53693 1.65,0.60083 5.025,1.64853 7.5,2.32824 4.4577,1.22423 5.4016,1.61681 13.857,5.7638 7.7025,3.77769 10.4705,5.49738 19.643,12.20393 11.3444,8.29448 21.6617,18.61545 30.2928,30.30355 7.4673,10.11201 9.3277,13.23122 15.279,25.61606 2.2464,4.675 4.7243,9.77397 5.5063,11.33104 0.7821,1.55707 1.4219,3.47568 1.4219,4.26357 0,0.78789 0.3897,2.21392 0.866,3.16896 1.3994,2.80623 3.172,8.31019 4.7457,14.73643 0.8082,3.3 2.0984,8.25 2.8671,11 0.7687,2.75 1.8943,8.15 2.5013,12 0.607,3.85 1.7352,10.6 2.5072,15 2.4369,13.88997 3.5241,33.11786 3.4772,61.5 -0.053,32.1326 -1.6899,55.13606 -7.9475,111.69158 -0.5593,5.05537 -1.017,11.08842 -1.017,13.40678 0,4.12333 -3.2045,23.95811 -4.9925,30.90161 -4.636,16.5855 -5.9951,40.362 -12.6312,55.2905 -0.343,0.3431 -1.7041,3.8319 -3.0245,7.7531 -5.4099,16.0653 -16.932,28.3297 -32.6491,34.7527 -5.9204,2.4195 -9.6948,3.147 -21.2026,4.087 -7.7,0.629 -16.7,1.8321 -20,2.6737 -4.7743,1.2175 -14.3756,1.6022 -46.9999,1.8829 -22.55,0.1941 -47.9751,-0.011 -56.5001,-0.4554 z m -66.7499,-0.6738 c 0.9625,-0.2515 2.5375,-0.2515 3.5,0 0.9625,0.2515 0.175,0.4573 -1.75,0.4573 -1.925,0 -2.7125,-0.2058 -1.75,-0.4573 z m -79.50335,-28.329 c -0.825,-0.4909 -2.94673,-7.0846 -6.24673,-8.5254 -14.93268,-6.5199 -29.04009,-13.9494 -32.60751,-17.1724 -3.02963,-2.737 -3.89249,-4.2496 -3.89249,-6.8234 0,-4.0578 5.51731,-14.623 16.42912,-31.4605 9.06579,-13.9889 8.17821,-12.5315 16.7477,-27.5 5.71676,-9.9855 13.41996,-25.12026 16.03266,-31.49996 0.5632,-1.375 1.3489,-3.175 1.7461,-4 0.3973,-0.825 1.4944,-4.2 2.4382,-7.5 0.9438,-3.3 2.1678,-7.45549 2.7202,-9.23443 0.5523,-1.77893 1.4224,-7.276 1.9334,-12.2157 0.9814,-9.4859 0.1798,-14.04987 -2.4678,-14.04987 -2.45,0 -25.33169,-11.85203 -37.7956,-19.57697 -20.70759,-12.83424 -41.51035,-30.69878 -54.5808,-46.8717 -3.13427,-3.87823 -5.94112,-7.27633 -6.23746,-7.55133 -0.87276,-0.80993 -11.49236,-17.18916 -13.61551,-21 -1.07248,-1.925 -2.7297,-6.2 -3.68271,-9.5 -0.95301,-3.3 -2.16807,-7.38195 -2.70012,-9.071 -1.50356,-4.77314 -1.15183,-17.53138 0.62726,-22.75272 2.07285,-6.0835 5.38926,-8.67628 11.09777,-8.67628 7.36657,0 14.24016,4.50585 33.71494,22.10117 8.55595,7.73024 12.32804,10.89883 12.97467,10.89883 1.10816,0 0.65225,-3.12045 -1.00065,-6.84887 -3.71457,-8.37891 -4.38137,-9.98151 -4.38137,-10.53034 0,-0.31731 -1.575,-3.941 -3.5,-8.05263 -1.925,-4.11163 -3.5,-8.0815 -3.5,-8.82192 0,-0.74043 -0.39559,-1.77374 -0.8791,-2.29625 -1.13868,-1.23051 -11.5055,-33.28106 -13.08365,-40.45 -0.66591,-3.025 -1.62171,-7.12721 -2.124,-9.11602 -1.51228,-5.98787 -1.11594,-22.15462 0.64654,-26.37284 5.19778,-12.44003 17.2915,-12.82023 33.28512,-1.04639 6.15118,4.52823 11.27306,9.44445 30.02578,28.82008 5.70387,5.89334 10.76637,10.71517 11.25,10.71517 1.11887,0 1.08043,-1.50258 -0.16631,-6.5 -0.54885,-2.2 -1.23284,-6.7 -1.51998,-10 -0.28714,-3.3 -0.95234,-9.0112 -1.47823,-12.69155 -2.00583,-14.03741 -0.0959,-36.09725 3.43052,-39.62372 1.37641,-1.3764 2.23219,-1.40997 6.84329,-0.26844 2.8985,0.71758 6.2335,1.90823 7.4111,2.64589 3.3298,2.08578 11.0434,14.3843 19.3164,30.79778 4.1514,8.23636 8.0474,15.14167 8.6578,15.34513 0.6257,0.20857 2.1059,-2.80896 3.3933,-6.91758 3.2711,-10.43956 8.7185,-20.47751 12.8035,-23.59335 4.9123,-3.74677 14.1457,-3.85086 18.9947,-0.21414 6.6803,5.01006 8.1816,8.11148 9.9227,20.49892 1.3841,9.84691 1.4501,14.02443 0.4698,29.73864 -1.3963,22.384 -2.3974,29.9865 -6.261,47.54677 -0.516,2.34539 -0.9382,5.81094 -0.9382,7.70121 0,1.89027 -0.675,6.02836 -1.5,9.19575 -1.6858,6.47225 -1.9779,13.33869 -0.5674,13.33869 0.5129,0 1.2466,-1.0125 1.6304,-2.25 0.3839,-1.2375 1.6007,-4.275 2.7042,-6.75 1.1035,-2.475 3.105,-6.975 4.4479,-10 8.5887,-19.34739 4.0549,-12.91847 17.1965,-30.6407 4.8481,-4.50633 21.0398,-17.22626 19.9008,-16.04629 -6.2543,6.44462 -16.0851,21.21454 -20.7579,31.18699 -4.4844,9.57043 -9.139,21.70744 -14.5732,38 -44.9102,53.93074 -17.2799,-30.36744 -14.5804,-48.32741 0.5852,-4.03008 1.5675,-9.19778 2.1831,-11.48378 0.6657,-2.47219 1.1456,-13.68529 1.1843,-27.67259 0.06,-21.59841 -0.1,-23.86556 -1.9563,-27.79978 -2.4744,-5.24354 -4.8428,-7.14304 -8.9582,-7.18464 -4.6038,-0.0465 -8.865,5.18456 -10.3112,12.65802 -0.6183,3.1956 -1.7491,8.51018 -2.5128,11.81018 -0.7637,3.3 -1.9038,8.7 -2.5337,12 -1.3664,7.1591 -2.934,12.78172 -4.0811,14.63776 -1.4622,2.36592 -1.4663,2.35867 -20.1255,-35.63776 -7.1745,-14.60968 -12.321,-22.14107 -16.0081,-23.42641 -6.26962,-2.18559 -6.11316,-2.59337 -5.43942,14.17641 0.33702,8.3875 1.31282,19.3 2.16842,24.25 4.2673,24.68902 5.7265,36.66328 4.6043,37.78542 -0.8439,0.84396 -8.33694,-6.13165 -29.37378,-27.34559 -21.72585,-21.90877 -29.73505,-29.33919 -34.71805,-32.2092 -10.3189,-5.94327 -12.4558,-5.0879 -14.30839,5.72744 -0.97149,5.67152 -0.87442,7.33328 0.71848,12.2997 1.01296,3.15823 2.28031,7.31723 2.81634,9.24223 0.53603,1.925 1.5342,4.85 2.21815,6.5 0.68395,1.65 1.78606,4.8 2.44913,7 1.23822,4.10833 1.91011,5.94891 6.57081,18 3.18044,8.22364 4.26809,10.9384 6.00964,15 0.70749,1.65 3.18323,7.725 5.50164,13.5 3.83591,9.555 6.76568,16.16936 13.50969,30.5 1.29416,2.75 3.01662,7.025 3.82769,9.5 0.81108,2.475 2.04509,5.74971 2.74225,7.27713 2.05444,4.50109 0.0185,5.29553 -5.57212,2.17431 -13.73254,-7.6668 -24.14731,-15.56751 -43.43677,-32.95144 -6.71317,-6.05 -14.08756,-12.05869 -16.38753,-13.35265 -2.29997,-1.29395 -4.89328,-2.98243 -5.76291,-3.75218 -0.86963,-0.76974 -1.88213,-1.09855 -2.25,-0.73069 -0.36787,0.36787 -0.66885,4.94752 -0.66885,10.17701 0,7.50191 0.53296,11.10653 2.52583,17.08333 1.38921,4.16635 2.89278,8.25018 3.34127,9.07518 8.71591,16.03303 11.13778,19.55078 22.92317,33.29584 14.94357,17.42839 36.12393,34.032 55.20973,43.27978 14.20368,6.88221 14.26817,6.90967 20.99998,8.94207 8.2834,2.50082 13.7932,5.22738 14.9567,7.40132 1.8556,3.46726 0.7325,19.26979 -2.1023,29.58099 -2.2518,8.19028 -4.0213,14.05824 -4.8248,16 -0.4553,1.1 -1.3942,3.575 -2.0865,5.5 -3.1939,8.88004 -12.70473,28.69977 -18.95476,39.49997 -2.22797,3.85 -5.02645,8.9125 -6.21885,11.25 -1.1924,2.3375 -2.52833,4.25 -2.96874,4.25 -0.4404,0 -0.80073,0.4592 -0.80073,1.0203 0,0.5612 -3.825,7.116 -8.5,14.5662 -4.675,7.4502 -8.5,13.9109 -8.5,14.3572 0,0.4463 -0.675,1.3716 -1.5,2.0563 -0.825,0.6847 -1.5,1.7731 -1.5,2.4187 0,1.2378 13.0491,9.954 19,12.6911 6.87613,3.1627 15.22768,6.3625 19.69198,7.5448 l 28.7543,6.7929 5.13,6.3861 c 2.5932,3.228 -39.71598,0.8108 -40.82955,0.1481 z M 1438.6234,890.96 c -8.9695,-1.60916 -18,-4.74837 -18,-6.25721 0,-0.41907 0.5625,-1.48044 1.25,-2.3586 1.0904,-1.39281 2.5267,-1.47299 11.25,-0.62802 5.5,0.53274 11.382,1.39022 13.071,1.90551 1.6891,0.5153 9.7891,0.93035 18,0.92235 16.9877,-0.0166 20.9916,-0.98426 35.5833,-8.6001 5.1397,-2.68252 5.2414,-1.11439 0.2516,3.87549 -3.6528,3.65275 -11.8635,7.48045 -20.9059,9.74598 -4.8925,1.2258 -35.5555,2.28167 -40.5,1.3946 z m -33,-35.33026 c 0,-0.51084 1.5157,-2.53584 3.3681,-4.5 l 3.3681,-3.5712 11.8819,-0.0483 c 11.0596,-0.045 27.1592,-2.39561 28.9974,-4.23388 0.3948,-0.39481 1.774,-0.71784 3.0648,-0.71784 1.2908,0 3.1283,-0.4282 4.0833,-0.95156 0.955,-0.52335 3.5364,-1.68865 5.7364,-2.58954 2.2,-0.9009 5.2548,-2.30837 6.7885,-3.12771 1.5337,-0.81935 3.79,-2.01655 5.0141,-2.66046 3.2341,-1.70124 9.1427,-5.96933 9.5308,-6.88461 0.1833,-0.43237 0.8413,-0.78612 1.4621,-0.78612 0.6209,0 3.025,-1.86095 5.3425,-4.13544 2.7255,-2.67488 4.7693,-3.92224 5.7869,-3.53178 1.4172,0.54386 1.4027,0.97834 -0.1466,4.38544 -2.6261,5.77478 -7.1174,11.82287 -11.1449,15.00767 -4.9516,3.91557 -13.8776,9.27413 -15.4484,9.27413 -0.7067,0 -1.7125,0.37562 -2.235,0.83472 -1.8233,1.60204 -12.0755,4.72723 -24.95,7.60554 -7.8456,1.75401 -40.5,2.26273 -40.5,0.63094 z m -15.9531,-33.23462 c 0.5242,-1.82786 0.9531,-3.43281 0.9531,-3.56656 0,-0.4653 7.2811,-3.28188 9.5454,-3.69247 1.2536,-0.22731 3.1891,-0.90025 4.3012,-1.49542 1.112,-0.59517 2.9576,-1.08213 4.1012,-1.08213 1.8761,0 3.2333,-0.5255 8.0522,-3.11776 0.825,-0.4438 3.4431,-1.81889 5.818,-3.05576 2.3748,-1.23686 9.1905,-5.95063 15.1459,-10.47503 5.9554,-4.5244 11.0821,-7.97212 11.3926,-7.66159 1.3464,1.34639 -11.2922,15.50891 -19.0171,21.31014 -8.9851,6.74756 -25.7336,13.76014 -37.0425,15.50971 l -4.2031,0.65025 z"
     style="fill:url(#linearGradient6425);fill-opacity:1"
     sodipodi:nodetypes="ssssssssccccsssssssssssssssscscccssssccssssssssccsccsscscsccssssscssssssssssssssssssssssssssssssssssssssssssssscssssscssscscccscccccsssssssssssssssssssssssssssssssssssssssssssssssscscssssscsscsssccssssssscssccsssssssscsscscssss" />
  <path
     inkscape:connector-curvature="0"
     id="path4295"
     d="m 1215.042,1242.9127 c -1.0639,-0.6744 -1.226,-4.3747 -0.7989,-18.2347 0.2947,-9.5638 0.8374,-19.6386 1.2061,-22.3886 0.3735,-2.7863 0.1078,-8.6187 -0.6003,-13.1733 l -1.2706,-8.1732 -7.3507,-7.3018 c -4.0429,-4.0159 -7.3508,-7.797 -7.3508,-8.4024 0,-0.6054 -1.125,-2.1576 -2.5,-3.4494 -1.375,-1.2918 -2.5,-3.1702 -2.5,-4.1744 0,-1.4935 0.808,-1.8257 4.441,-1.8257 2.4425,0 4.711,0.437 5.0411,0.9711 0.3301,0.534 2.8598,1.2707 5.6215,1.6371 2.7617,0.3663 6.5218,1.6843 8.3557,2.929 6.0262,4.0895 7.2875,4.0593 11.3603,-0.2715 2.0242,-2.1523 5.6993,-7.4801 8.1669,-11.8395 3.5666,-6.3009 4.2994,-16.3206 4.2994,-16.3206 40.483,-5.3844 27.6251,-11.9545 12.2383,9.7636 -1.2926,1.997 -3.5144,4.8487 -4.9373,6.3372 -1.4228,1.4885 -2.587,3.0834 -2.587,3.5442 0,0.4609 -1.6875,2.6524 -3.75,4.8701 -7.8767,8.4694 -8.0083,12.3639 -0.584,17.2816 2.5723,1.7038 5.4732,3.0979 6.4465,3.0979 0.9732,0 2.0219,0.4083 2.3304,0.9075 0.3084,0.4991 3.1475,1.6616 6.309,2.5833 8.3436,2.4326 17.0549,6.4897 22.5507,10.5025 4.8926,3.5724 10.7176,12.0067 8.2922,12.0067 -1.674,0 -13.261,-3.7342 -17.2459,-5.5579 -1.7331,-0.7932 -3.4495,-1.4421 -3.8141,-1.4421 -0.3646,0 -3.1224,-1.125 -6.1285,-2.5 -6.2762,-2.8709 -7.7119,-3.0417 -9.3163,-1.1085 -1.487,1.7917 -0.4479,15.9987 1.7267,23.6085 2.0656,7.2279 2.8489,27.3885 1.0408,26.7858 -1.705,-0.5683 -4.3304,-5.1881 -6.4138,-11.2858 -0.9396,-2.75 -2.0562,-5.45 -2.4815,-6 -0.4252,-0.55 -1.5414,-3.6521 -2.4803,-6.8936 -1.6308,-5.6296 -7.2084,-17.3671 -9.6519,-20.3113 -1.6515,-1.99 -4.835,-1.2058 -6.9213,1.7049 -1.3782,1.9228 -1.9032,5.0897 -2.2739,13.7178 -0.4635,10.7865 -1.2681,14.959 -4.2547,22.0661 -0.7591,1.8061 -1.3801,4.1686 -1.3801,5.25 0,2.1267 -0.7459,2.4134 -2.8347,1.0894 z M 1003.3,1207.4531 c -2.7587,-3.4574 -10.10079,-19.9326 -12.49219,-28.032 -0.7522,-2.5474 -1.7194,-4.6317 -2.1493,-4.6317 -0.43,0 -0.7817,-0.6288 -0.7817,-1.3972 0,-1.6956 -5.0343,-7.6029 -6.4792,-7.6029 -1.3445,0 -2.619,4.303 -6.5901,22.2501 -1.8123,8.1906 -3.7578,14.75 -4.3747,14.75 -0.6111,0 -2.1682,-0.7405 -3.4602,-1.6455 -2.5694,-1.7996 -2.5795,-2.904 -0.2794,-30.613 0.4455,-5.3672 0.6099,-12.5243 0.3654,-15.9045 l -0.4445,-6.1458 -8.6187,-8.8532 c -5.5496,-5.7007 -8.9056,-10.0079 -9.4246,-12.0957 -2.2326,-8.9818 -2.5998,-8.1283 3.201,-7.4412 2.8535,0.3379 7.9819,1.9825 11.3966,3.6547 3.4146,1.6721 8.261,3.3157 10.7697,3.6522 4.3676,0.586 4.7287,0.4355 8.4978,-3.542 2.1649,-2.2847 5.6039,-7.1717 7.642,-10.8601 5.8127,-10.5189 6.1125,-11.3838 4.9978,-14.4177 -0.45943,-3.1182 -4.63012,-6.9593 -4.50378,-7.1163 4.1056,-5.0104 11.61667,3.4801 19.55117,6.0588 7.291,2.3695 16.4761,2.8274 16.8117,5.6098 0.5512,4.5711 -6.4158,-4.5277 -18.558,8.0611 -13.13609,13.6194 -15.47949,16.4883 -17.43249,21.3424 -1.1243,2.7943 -1.0776,3.5915 0.3367,5.75 0.903,1.3782 2.091,2.5059 2.6399,2.5059 1.2967,0 14.29049,6.2419 14.99669,7.2041 0.7162,0.9759 19.5679,9.7702 21.1929,9.8864 2.8102,0.201 11.3045,5.6369 12.4142,7.9444 2.8767,5.9818 4.6134,11.0371 4.0019,11.6487 -0.3647,0.3647 -8.6625,-2.7899 -18.4396,-7.0102 -9.777,-4.2204 -18.2919,-7.6734 -18.9219,-7.6734 -0.63,0 -1.8711,0.7258 -2.7581,1.6127 -2.3665,2.3665 -1.2846,23.841 1.5102,29.976 2.4796,5.4431 2.706,14.911 0.3778,15.8044 -2.2292,0.8554 -2.0616,0.947 -4.995,-2.7293 z"
     style="fill:#c89c4a;fill-opacity:1;stroke:#000000;stroke-opacity:1"
     sodipodi:nodetypes="cscscsssssccccscccssssccsscscsccscccsscscssssssscsscsscccssccscsscsccsccscsss" />
  <path
     style="fill:#ffe680;fill-opacity:1"
     d="m 1166.3321,743.03121 c -0.7689,0.023 -1.5857,0.0759 -2.5,0.15625 -4.536,0.39869 -8.5148,1.60906 -13.75,4.21875 -6.0777,3.02973 -8.1274,3.8674 -14.8437,4.09375 -6.8457,0.23072 -5.0605,0.21269 -10.375,-1.96875 l -3.25,-4.53125 -3.5,7.125 c -6.3111,6.50299 -16.1532,21.23971 -20.8438,31.25 -4.4844,9.57043 -9.1283,21.70744 -14.5625,38 -1.8344,5.5 -4.6669,13.6 -6.3125,18 -1.6456,4.4 -4.1991,12.05 -5.6562,17 -1.4573,4.95 -3.2483,10.575 -4,12.5 -0.7519,1.925 -1.8431,5.75 -2.4063,8.5 -1.6463,8.03815 -3.9474,17.58203 -5.6875,23.5 -2.6948,9.16459 -3.3935,15.80969 -3.3125,31.5 0.098,19.14795 7.8125,34.28125 7.8125,34.28125 0,0 17.0074,-23.54078 28.0246,-32.77234 33.2256,-27.84052 87.3973,-38.59912 112.1004,-65.91516 6.1485,-12.08469 17.3172,-34.58497 22.375,-48.53125 2.0243,-5.58171 3.6282,-11.35039 4.5312,-17.21875 0.6314,-4.10214 1.3467,-8.35592 0.5938,-12.4375 -0.5026,-2.72477 -1.2028,-5.43439 -3.3125,-7.625 -2.0967,-2.17704 -5.3611,-2.74702 -5.7187,-5.84375 -0.3904,-3.37981 5.3704,-4.69318 8.5624,-4.5625 3.2373,0.13252 6.1285,2.82414 8.3438,5.34375 2.0148,2.2915 3.6803,5.29399 4.0312,8.375 0.9329,8.18931 -5.4578,18.74733 -8.0387,26.57509 -2.4913,7.55583 -5.8452,14.85747 -9.5937,21.875 -4.8035,8.99239 -17.7294,26.97841 -24.2924,36.82458 14.0883,-11.53289 36.3281,-34.6921 42.9174,-44.54333 6.8837,-10.2913 12.5575,-22.02064 13.9137,-36.32509 1.101,-11.61185 -7.9036,-32.51557 -17.1563,-39.84375 -3.8922,-3.08268 -4.22,-3.15625 -14.5937,-3.15625 -9.0807,0 -11.9765,0.46813 -20.3437,3.125 -5.3692,1.7048 -10.1963,3.50481 -10.7188,4 -1.3071,1.23875 -9.9214,1.13257 -12.75,-0.15625 -1.2735,-0.58023 -3.4096,-2.66894 -4.75,-4.625 -3.3963,-4.95663 -5.5554,-6.3483 -10.9375,-6.1875 z m -1.8125,11.84375 c 10.05,0 6.0846,9.45763 -5.2812,12.59375 -3.0251,0.83468 -6.6964,2.17089 -8.1563,2.96875 -4.1154,2.24921 -4.1978,1.85145 -0.8125,-4.5 3.6328,-6.81581 9.1148,-11.0625 14.25,-11.0625 z"
     id="path6347"
     inkscape:connector-curvature="0"
     sodipodi:nodetypes="ccsscccssscccsccacscsccsccsscsssscscccsscss" />
  <path
     style="fill:#c89c4a;stroke:none;fill-opacity:1"
     d="m 1156.6604,746.17537 c 0,0 -27.7724,15.79091 -47.5,49.09516 -19.7276,33.30425 -13.8924,26.12911 -27.0432,52.22075 -13.1508,26.09164 -25.4195,59.97141 -25.4195,59.97141 l 11.6979,-49.98135 c 0,0 26.2312,-78.16231 40.9421,-94.64552 14.7344,-16.50971 10.7524,-20.82841 10.7524,-20.82841 0,0 4.5296,6.85702 5.4695,7.35833 0.94,0.50131 1.88,2.06789 7.081,2.00523 5.2011,-0.0627 18.4478,-5.65808 23.6241,-6.95563 5.1763,-1.29755 7.2376,-1.50392 7.2376,-1.50392 z"
     id="path4426"
     inkscape:connector-curvature="0"
     sodipodi:nodetypes="czzccsccszcc" />
</svg>
